<svg 
 xmlns="http://www.w3.org/2000/svg"
 xmlns:xlink="http://www.w3.org/1999/xlink"
 width="72px" height="72px">
<path fill-rule="evenodd"  fill="none"
 d="M-0.000,-0.000 L72.000,-0.000 L72.000,72.000 L-0.000,72.000 L-0.000,-0.000 Z"/>
<path fill-rule="evenodd"  fill="rgb(181, 181, 181)"
 d="M60.000,39.000 L12.000,39.000 C10.343,39.000 9.000,37.657 9.000,36.000 C9.000,34.343 10.343,33.000 12.000,33.000 L60.000,33.000 C61.657,33.000 63.000,34.343 63.000,36.000 C63.000,37.657 61.657,39.000 60.000,39.000 ZM60.000,24.000 L12.000,24.000 C10.343,24.000 9.000,22.657 9.000,21.000 C9.000,19.343 10.343,18.000 12.000,18.000 L60.000,18.000 C61.657,18.000 63.000,19.343 63.000,21.000 C63.000,22.657 61.657,24.000 60.000,24.000 ZM12.000,48.000 L60.000,48.000 C61.657,48.000 63.000,49.343 63.000,51.000 C63.000,52.657 61.657,54.000 60.000,54.000 L12.000,54.000 C10.343,54.000 9.000,52.657 9.000,51.000 C9.000,49.343 10.343,48.000 12.000,48.000 Z"/>
</svg>