<svg 
 xmlns="http://www.w3.org/2000/svg"
 xmlns:xlink="http://www.w3.org/1999/xlink"
 width="72px" height="72px">
<path fill-rule="evenodd"  fill="none"
 d="M-0.000,-0.000 L72.000,-0.000 L72.000,72.000 L-0.000,72.000 L-0.000,-0.000 Z"/>
<path fill-rule="evenodd"  fill="rgb(181, 181, 181)"
 d="M28.949,41.078 C21.701,41.078 15.829,35.206 15.829,27.958 C15.829,20.713 21.701,14.839 28.949,14.839 C36.195,14.839 42.070,20.713 42.070,27.958 C42.070,35.206 36.195,41.078 28.949,41.078 ZM46.449,41.078 L44.134,41.078 L43.329,40.280 C46.172,36.965 47.901,32.667 47.901,27.958 C47.901,17.492 39.416,9.008 28.949,9.008 C18.482,9.008 9.997,17.492 9.997,27.958 C9.997,38.425 18.482,46.909 28.949,46.909 C33.658,46.909 37.953,45.184 41.268,42.344 L42.072,43.143 L42.072,45.452 L56.645,60.003 L60.992,55.656 L46.449,41.078 Z"/>
</svg>