<svg 
 xmlns="http://www.w3.org/2000/svg"
 xmlns:xlink="http://www.w3.org/1999/xlink"
 width="74px" height="74px">
<path fill-rule="evenodd"  fill="none"
 d="M-0.000,-0.000 L72.000,-0.000 L72.000,72.000 L-0.000,72.000 L-0.000,-0.000 Z"/>
<path fill-rule="evenodd"  stroke="rgb(181, 181, 181)" stroke-width="4px" stroke-linecap="butt" stroke-linejoin="miter" fill="rgb(181, 181, 181)"
 d="M33.000,23.000 L31.688,23.000 C30.565,27.590 26.436,31.000 21.500,31.000 C16.564,31.000 12.435,27.590 11.312,23.000 L10.000,23.000 L3.000,23.000 L3.000,18.000 L10.000,18.000 L11.312,18.000 C12.435,13.410 16.564,10.000 21.500,10.000 C26.436,10.000 30.565,13.410 31.688,18.000 L33.000,18.000 L68.000,18.000 L68.000,23.000 L33.000,23.000 ZM21.500,14.000 C17.910,14.000 15.000,16.910 15.000,20.500 C15.000,24.090 17.910,27.000 21.500,27.000 C25.090,27.000 28.000,24.090 28.000,20.500 C28.000,16.910 25.090,14.000 21.500,14.000 Z"/>
<path fill-rule="evenodd"  stroke="rgb(181, 181, 181)" stroke-width="4px" stroke-linecap="butt" stroke-linejoin="miter" fill="rgb(181, 181, 181)"
 d="M61.000,50.000 L59.688,50.000 C58.565,54.590 54.436,58.000 49.500,58.000 C44.564,58.000 40.435,54.590 39.312,50.000 L38.000,50.000 L3.000,50.000 L3.000,45.000 L38.000,45.000 L39.312,45.000 C40.435,40.410 44.564,37.000 49.500,37.000 C54.436,37.000 58.565,40.410 59.688,45.000 L61.000,45.000 L68.000,45.000 L68.000,50.000 L61.000,50.000 ZM49.500,41.000 C45.910,41.000 43.000,43.910 43.000,47.500 C43.000,51.090 45.910,54.000 49.500,54.000 C53.090,54.000 56.000,51.090 56.000,47.500 C56.000,43.910 53.090,41.000 49.500,41.000 Z"/>
</svg>