<svg 
 xmlns="http://www.w3.org/2000/svg"
 xmlns:xlink="http://www.w3.org/1999/xlink"
 width="165px" height="165px">
<path fill-rule="evenodd"  opacity="0.541" fill="rgb(0, 0, 0)"
 d="M80.648,64.000 L64.000,64.000 L64.000,80.650 C64.000,81.671 64.416,82.594 65.086,83.268 L81.741,99.914 C82.409,100.584 83.334,101.000 84.357,101.000 C85.380,101.000 86.305,100.586 86.973,99.918 L99.912,86.977 C100.584,86.307 101.000,85.379 101.000,84.357 C101.000,83.334 100.587,82.407 99.914,81.741 L83.268,65.082 C82.594,64.416 81.671,64.000 80.648,64.000 M70.475,73.250 C68.943,73.250 67.702,72.005 67.702,70.475 C67.702,68.943 68.943,67.700 70.475,67.700 C72.007,67.700 73.250,68.943 73.250,70.475 C73.250,72.005 72.007,73.250 70.475,73.250 "/>
<path fill-rule="evenodd"  fill="none"
 d="M58.000,58.000 L106.000,58.000 L106.000,106.000 L58.000,106.000 L58.000,58.000 Z"/>
</svg>